<?xml version="1.0" encoding="utf-8"?>
<svg width="100%" height="100%" viewBox="0 0 24 24" fill="none" xmlns="http://www.w3.org/2000/svg">
  <style>
    /* Por defecto (Tema Claro): Color casi negro para suavidad */
    path { fill: #171717; }
    
    /* Tema Oscuro: Blanco puro */
    @media (prefers-color-scheme: dark) {
      path { fill: #ffffff; }
    }
  </style>
  
  <path fill-rule="evenodd" clip-rule="evenodd" d="M6 4C5.44772 4 5 4.44772 5 5V19C5 19.5523 5.44772 20 6 20H8C8.55228 20 9 19.5523 9 19V11.8284L14.5858 19.4142C14.9609 19.7893 15.4696 20 16 20H18C18.5523 20 19 19.5523 19 19V5C19 4.44772 18.5523 4 18 4H16C15.4477 4 15 4.44772 15 5V12.1716L9.41421 4.58579C9.03914 4.21071 8.53043 4 8 4H6Z"/>
</svg>